<svg xmlns="http://www.w3.org/2000/svg" version="1.1" xmlns:xlink="http://www.w3.org/1999/xlink" width="1000" height="1000"><g clip-path="url(#SvgjsClipPath1122)"><rect width="1000" height="1000" fill="#ffffff"></rect><g transform="matrix(0.35476718403547675,0,0,0.35476718403547675,126.78492239467846,100)"><svg xmlns="http://www.w3.org/2000/svg" version="1.1" xmlns:xlink="http://www.w3.org/1999/xlink" width="2104" height="2255"><svg width="2104" height="2255" xmlns="http://www.w3.org/2000/svg" xmlns:xlink="http://www.w3.org/1999/xlink" xml:space="preserve" overflow="hidden"><g transform="translate(-1246 -110)"><g><path d="M0 0 45.6922 86.3078" stroke="#000000" stroke-width="42.3958" stroke-linecap="round" stroke-linejoin="miter" stroke-miterlimit="8" stroke-opacity="1" fill="none" fill-rule="evenodd" transform="matrix(-1 0 0 1 1382.69 885)"></path><path d="M0 0 112.45 111.146" stroke="#000000" stroke-width="42.3958" stroke-linecap="round" stroke-linejoin="miter" stroke-miterlimit="8" stroke-opacity="1" fill="none" fill-rule="evenodd" transform="matrix(-1 0 0 1 1458.45 763)"></path><path d="M0 0 51.0688 36.9135" stroke="#000000" stroke-width="42.3958" stroke-linecap="round" stroke-linejoin="miter" stroke-miterlimit="8" stroke-opacity="1" fill="none" fill-rule="evenodd" transform="matrix(-1 0 0 1 1468.07 714)"></path><path d="M0 0 42.3958 21.7708" stroke="#000000" stroke-width="42.3958" stroke-linecap="round" stroke-linejoin="miter" stroke-miterlimit="8" stroke-opacity="1" fill="none" fill-rule="evenodd" transform="matrix(1 0 0 -1 1452 691.771)"></path><path d="M0 0 79.0625 10.3125" stroke="#000000" stroke-width="42.3958" stroke-linecap="round" stroke-linejoin="miter" stroke-miterlimit="8" stroke-opacity="1" fill="none" fill-rule="evenodd" transform="matrix(1 0 0 -1 1485 630.313)"></path><path d="M1485 631 1506.77 647.042" stroke="#000000" stroke-width="42.3958" stroke-linecap="round" stroke-linejoin="miter" stroke-miterlimit="8" stroke-opacity="1" fill="none" fill-rule="evenodd"></path><path d="M1581 595 1600.48 600.729" stroke="#000000" stroke-width="42.3958" stroke-linecap="round" stroke-linejoin="miter" stroke-miterlimit="8" stroke-opacity="1" fill="none" fill-rule="evenodd"></path><path d="M1604 561 1623.48 566.729" stroke="#000000" stroke-width="42.3958" stroke-linecap="round" stroke-linejoin="miter" stroke-miterlimit="8" stroke-opacity="1" fill="none" fill-rule="evenodd"></path><path d="M1655 530 1674.48 532.292" stroke="#000000" stroke-width="42.3958" stroke-linecap="round" stroke-linejoin="miter" stroke-miterlimit="8" stroke-opacity="1" fill="none" fill-rule="evenodd"></path><path d="M1735.85 524.188 1682 507" stroke="#000000" stroke-width="42.3958" stroke-linecap="round" stroke-linejoin="miter" stroke-miterlimit="8" stroke-opacity="1" fill="none" fill-rule="evenodd"></path><path d="M0 0 36.6667 22.9167" stroke="#000000" stroke-width="42.3958" stroke-linecap="round" stroke-linejoin="miter" stroke-miterlimit="8" stroke-opacity="1" fill="none" fill-rule="evenodd" transform="matrix(-1 0 0 1 1776.67 458)"></path><path d="M0 0 30.9375 22.9167" stroke="#000000" stroke-width="42.3958" stroke-linecap="round" stroke-linejoin="miter" stroke-miterlimit="8" stroke-opacity="1" fill="none" fill-rule="evenodd" transform="matrix(-1 0 0 1 1807.94 411)"></path><path d="M1819 363 1819 389.354" stroke="#000000" stroke-width="42.3958" stroke-linecap="round" stroke-linejoin="miter" stroke-miterlimit="8" stroke-opacity="1" fill="none" fill-rule="evenodd"></path><path d="M0 0 48.125 22.9167" stroke="#000000" stroke-width="42.3958" stroke-linecap="round" stroke-linejoin="miter" stroke-miterlimit="8" stroke-opacity="1" fill="none" fill-rule="evenodd" transform="matrix(-1 0 0 1 1861.12 340)"></path><path d="M1847 325 1861.9 339.896" stroke="#000000" stroke-width="42.3958" stroke-linecap="round" stroke-linejoin="miter" stroke-miterlimit="8" stroke-opacity="1" fill="none" fill-rule="evenodd"></path><path d="M0 0 38.1597 6.7458" stroke="#000000" stroke-width="42.3958" stroke-linecap="round" stroke-linejoin="miter" stroke-miterlimit="8" stroke-opacity="1" fill="none" fill-rule="evenodd" transform="matrix(-1 0 0 1 1887.16 290)"></path><path d="M0 0 35.8114 6.0601" stroke="#000000" stroke-width="42.3958" stroke-linecap="round" stroke-linejoin="miter" stroke-miterlimit="8" stroke-opacity="1" fill="none" fill-rule="evenodd" transform="matrix(-1 0 0 1 1933.81 258)"></path><path d="M0 0 46.1239 1.47677" stroke="#000000" stroke-width="42.3958" stroke-linecap="round" stroke-linejoin="miter" stroke-miterlimit="8" stroke-opacity="1" fill="none" fill-rule="evenodd" transform="matrix(-1 0 0 1 1994.12 235)"></path><path d="M0 0 48.4155 1.47677" stroke="#000000" stroke-width="42.3958" stroke-linecap="round" stroke-linejoin="miter" stroke-miterlimit="8" stroke-opacity="1" fill="none" fill-rule="evenodd" transform="matrix(-1 0 0 1 1972.42 247)"></path><path d="M2058.4 219.312 2016 209" stroke="#000000" stroke-width="42.3958" stroke-linecap="round" stroke-linejoin="miter" stroke-miterlimit="8" stroke-opacity="1" fill="none" fill-rule="evenodd"></path><path d="M0 0 53.7834 105.293" stroke="#000000" stroke-width="42.3958" stroke-linecap="round" stroke-linejoin="miter" stroke-miterlimit="8" stroke-opacity="1" fill="none" fill-rule="evenodd" transform="matrix(-1 0 0 1 1374.78 971)"></path><path d="M0 0 7.72129 41.25" stroke="#000000" stroke-width="42.3958" stroke-linecap="round" stroke-linejoin="miter" stroke-miterlimit="8" stroke-opacity="1" fill="none" fill-rule="evenodd" transform="matrix(-1 0 0 1 1319.72 1075)"></path><path d="M0 0 43.1183 64.0432" stroke="#000000" stroke-width="42.3958" stroke-linecap="round" stroke-linejoin="miter" stroke-miterlimit="8" stroke-opacity="1" fill="none" fill-rule="evenodd" transform="matrix(-1 0 0 1 1311.12 1115)"></path><path d="M1270 1177 1308.54 1197.75" stroke="#000000" stroke-width="42.3958" stroke-linecap="round" stroke-linejoin="miter" stroke-miterlimit="8" stroke-opacity="1" fill="none" fill-rule="evenodd"></path><path d="M0 0 30.9375 60.7292" stroke="#000000" stroke-width="42.3958" stroke-linecap="round" stroke-linejoin="miter" stroke-miterlimit="8" stroke-opacity="1" fill="none" fill-rule="evenodd" transform="matrix(-1 0 0 1 1307.94 1198)"></path><path d="M0 0 21.7708 88.2292" stroke="#000000" stroke-width="42.3958" stroke-linecap="round" stroke-linejoin="miter" stroke-miterlimit="8" stroke-opacity="1" fill="none" fill-rule="evenodd" transform="matrix(-1 0 0 1 1304.77 1262)"></path><path d="M0 0 26.7154 153.542" stroke="#000000" stroke-width="42.3958" stroke-linecap="round" stroke-linejoin="miter" stroke-miterlimit="8" stroke-opacity="1" fill="none" fill-rule="evenodd" transform="matrix(-1 0 0 1 1315.72 1361)"></path><path d="M1320 1498 1338.33 1653.83" stroke="#000000" stroke-width="42.3958" stroke-linecap="round" stroke-linejoin="miter" stroke-miterlimit="8" stroke-opacity="1" fill="none" fill-rule="evenodd"></path><path d="M1372 1677 1379.48 1718.31" stroke="#000000" stroke-width="42.3958" stroke-linecap="round" stroke-linejoin="miter" stroke-miterlimit="8" stroke-opacity="1" fill="none" fill-rule="evenodd"></path><path d="M1416 1727 1458.86 1831.29" stroke="#000000" stroke-width="42.3958" stroke-linecap="round" stroke-linejoin="miter" stroke-miterlimit="8" stroke-opacity="1" fill="none" fill-rule="evenodd"></path><path d="M1481 1792 1516.14 1842.71" stroke="#000000" stroke-width="42.3958" stroke-linecap="round" stroke-linejoin="miter" stroke-miterlimit="8" stroke-opacity="1" fill="none" fill-rule="evenodd"></path><path d="M1528 1812 1613.86 1912" stroke="#000000" stroke-width="42.3958" stroke-linecap="round" stroke-linejoin="miter" stroke-miterlimit="8" stroke-opacity="1" fill="none" fill-rule="evenodd"></path><path d="M1646 1913 1716.86 1955.14" stroke="#000000" stroke-width="42.3958" stroke-linecap="round" stroke-linejoin="miter" stroke-miterlimit="8" stroke-opacity="1" fill="none" fill-rule="evenodd"></path><path d="M1755 1988 1837.86 1998.31" stroke="#000000" stroke-width="42.3958" stroke-linecap="round" stroke-linejoin="miter" stroke-miterlimit="8" stroke-opacity="1" fill="none" fill-rule="evenodd"></path><path d="M1843 2017 1844.61 2161.17" stroke="#000000" stroke-width="42.3958" stroke-linecap="round" stroke-linejoin="miter" stroke-miterlimit="8" stroke-opacity="1" fill="none" fill-rule="evenodd"></path><path d="M1847 2162 1861.9 2210.12" stroke="#000000" stroke-width="42.3958" stroke-linecap="round" stroke-linejoin="miter" stroke-miterlimit="8" stroke-opacity="1" fill="none" fill-rule="evenodd"></path><path d="M1902.5 2152.5 1931.44 2199.48" stroke="#000000" stroke-width="28.6458" stroke-linecap="round" stroke-linejoin="miter" stroke-miterlimit="8" stroke-opacity="1" fill="none" fill-rule="evenodd"></path><path d="M1935.5 2201.5 1935.5 2235.87" stroke="#000000" stroke-width="28.6458" stroke-linecap="round" stroke-linejoin="miter" stroke-miterlimit="8" stroke-opacity="1" fill="none" fill-rule="evenodd"></path><path d="M0 0 19.4792 24.0625" stroke="#000000" stroke-width="28.6458" stroke-linecap="round" stroke-linejoin="miter" stroke-miterlimit="8" stroke-opacity="1" fill="none" fill-rule="evenodd" transform="matrix(-1 0 0 1 1938.98 2236.5)"></path><path d="M0 0 19.4792 24.0625" stroke="#000000" stroke-width="28.6458" stroke-linecap="round" stroke-linejoin="miter" stroke-miterlimit="8" stroke-opacity="1" fill="none" fill-rule="evenodd" transform="matrix(-1 0 0 1 1901.98 2218.5)"></path><path d="M1900.5 2152.5 1905.95 2182.36" stroke="#000000" stroke-width="28.6458" stroke-linecap="round" stroke-linejoin="miter" stroke-miterlimit="8" stroke-opacity="1" fill="none" fill-rule="evenodd"></path><path d="M1907.5 2185.5 1907.5 2219.88" stroke="#000000" stroke-width="28.6458" stroke-linecap="round" stroke-linejoin="miter" stroke-miterlimit="8" stroke-opacity="1" fill="none" fill-rule="evenodd"></path><path d="M0 0 4.5707 17.1875" stroke="#000000" stroke-width="28.6458" stroke-linecap="round" stroke-linejoin="miter" stroke-miterlimit="8" stroke-opacity="1" fill="none" fill-rule="evenodd" transform="matrix(-1 0 0 1 1862.07 2213.5)"></path><path d="M1812 2203 1821.45 2248.51" stroke="#000000" stroke-width="42.3958" stroke-linecap="round" stroke-linejoin="miter" stroke-miterlimit="8" stroke-opacity="1" fill="none" fill-rule="evenodd"></path><path d="M1819 2248 1853.95 2251.42" stroke="#000000" stroke-width="42.3958" stroke-linecap="round" stroke-linejoin="miter" stroke-miterlimit="8" stroke-opacity="1" fill="none" fill-rule="evenodd"></path><path d="M1822.5 2228.5 1857.45 2231.92" stroke="#000000" stroke-width="28.6458" stroke-linecap="round" stroke-linejoin="miter" stroke-miterlimit="8" stroke-opacity="1" fill="none" fill-rule="evenodd"></path><path d="M1857.5 2257.5 1888.57 2274.58" stroke="#000000" stroke-width="28.6458" stroke-linecap="round" stroke-linejoin="miter" stroke-miterlimit="8" stroke-opacity="1" fill="none" fill-rule="evenodd"></path><path d="M0 0 27.5004 9.3832" stroke="#000000" stroke-width="28.6458" stroke-linecap="round" stroke-linejoin="miter" stroke-miterlimit="8" stroke-opacity="1" fill="none" fill-rule="evenodd" transform="matrix(-1 0 0 1 1882 2242.5)"></path><path d="M1885.5 2274.5 1931.49 2274.5" stroke="#000000" stroke-width="28.6458" stroke-linecap="round" stroke-linejoin="miter" stroke-miterlimit="8" stroke-opacity="1" fill="none" fill-rule="evenodd"></path><path d="M0 0 28.3593 13.6627" stroke="#000000" stroke-width="42.3958" stroke-linecap="round" stroke-linejoin="miter" stroke-miterlimit="8" stroke-opacity="1" fill="none" fill-rule="evenodd" transform="matrix(-1 0 0 1 1918.36 2260)"></path><path d="M1957.5 2144.5 1982.87 2186.48" stroke="#000000" stroke-width="28.6458" stroke-linecap="round" stroke-linejoin="miter" stroke-miterlimit="8" stroke-opacity="1" fill="none" fill-rule="evenodd"></path><path d="M1956.5 2144.5 2003.04 2167.43" stroke="#000000" stroke-width="28.6458" stroke-linecap="round" stroke-linejoin="miter" stroke-miterlimit="8" stroke-opacity="1" fill="none" fill-rule="evenodd"></path><path d="M0 0 0.127756 55.445" stroke="#000000" stroke-width="28.6458" stroke-linecap="round" stroke-linejoin="miter" stroke-miterlimit="8" stroke-opacity="1" fill="none" fill-rule="evenodd" transform="matrix(-1 0 0 1 2003.63 2166.5)"></path><path d="M0 0 0.127756 55.445" stroke="#000000" stroke-width="28.6458" stroke-linecap="round" stroke-linejoin="miter" stroke-miterlimit="8" stroke-opacity="1" fill="none" fill-rule="evenodd" transform="matrix(-1 0 0 1 1982.63 2182.5)"></path><path d="M0 0 26.7205 32.7701" stroke="#000000" stroke-width="28.6458" stroke-linecap="round" stroke-linejoin="miter" stroke-miterlimit="8" stroke-opacity="1" fill="none" fill-rule="evenodd" transform="matrix(-1 0 0 1 2003.22 2218.5)"></path><path d="M0 0 44.0069 23.2462" stroke="#000000" stroke-width="42.3958" stroke-linecap="round" stroke-linejoin="miter" stroke-miterlimit="8" stroke-opacity="1" fill="none" fill-rule="evenodd" transform="matrix(-1 0 0 1 1975.01 2250)"></path><path d="M1965.5 2260.5 1995.18 2280.33" stroke="#000000" stroke-width="28.6458" stroke-linecap="round" stroke-linejoin="miter" stroke-miterlimit="8" stroke-opacity="1" fill="none" fill-rule="evenodd"></path><path d="M0 0 26.7205 32.7701" stroke="#000000" stroke-width="42.3958" stroke-linecap="round" stroke-linejoin="miter" stroke-miterlimit="8" stroke-opacity="1" fill="none" fill-rule="evenodd" transform="matrix(-1 0 0 1 2021.72 2247)"></path><path d="M0 0 21.5604 3.40827" stroke="#000000" stroke-width="28.6458" stroke-linecap="round" stroke-linejoin="miter" stroke-miterlimit="8" stroke-opacity="1" fill="none" fill-rule="evenodd" transform="matrix(1 0 0 -1 2021.5 2249.91)"></path><path d="M0 0 5.32569 73.7783" stroke="#000000" stroke-width="42.3958" stroke-linecap="round" stroke-linejoin="miter" stroke-miterlimit="8" stroke-opacity="1" fill="none" fill-rule="evenodd" transform="matrix(-1 0 0 1 2048.33 2176)"></path><path d="M1941 2045 1991.82 2094.43" stroke="#000000" stroke-width="42.3958" stroke-linecap="round" stroke-linejoin="miter" stroke-miterlimit="8" stroke-opacity="1" fill="none" fill-rule="evenodd"></path><path d="M1997 2100 2066.19 2143.94" stroke="#000000" stroke-width="42.3958" stroke-linecap="round" stroke-linejoin="miter" stroke-miterlimit="8" stroke-opacity="1" fill="none" fill-rule="evenodd"></path><path d="M0 0 13.6782 23.6825" stroke="#000000" stroke-width="28.6458" stroke-linecap="round" stroke-linejoin="miter" stroke-miterlimit="8" stroke-opacity="1" fill="none" fill-rule="evenodd" transform="matrix(-1 0 0 1 2068.18 2147.5)"></path><path d="M1954 2034 2074.9 2035.58" stroke="#000000" stroke-width="42.3958" stroke-linecap="round" stroke-linejoin="miter" stroke-miterlimit="8" stroke-opacity="1" fill="none" fill-rule="evenodd"></path><path d="M2054 2043 2174.9 2044.58" stroke="#000000" stroke-width="42.3958" stroke-linecap="round" stroke-linejoin="miter" stroke-miterlimit="8" stroke-opacity="1" fill="none" fill-rule="evenodd"></path><path d="M2182 2051 2298.88 2088.15" stroke="#000000" stroke-width="42.3958" stroke-linecap="round" stroke-linejoin="miter" stroke-miterlimit="8" stroke-opacity="1" fill="none" fill-rule="evenodd"></path><path d="M2312 2059 2465.54 2093.66" stroke="#000000" stroke-width="42.3958" stroke-linecap="round" stroke-linejoin="miter" stroke-miterlimit="8" stroke-opacity="1" fill="none" fill-rule="evenodd"></path><path d="M2460 2058 2524.98 2075.33" stroke="#000000" stroke-width="42.3958" stroke-linecap="round" stroke-linejoin="miter" stroke-miterlimit="8" stroke-opacity="1" fill="none" fill-rule="evenodd"></path><path d="M2587 2043 2652.39 2063.8" stroke="#000000" stroke-width="42.3958" stroke-linecap="round" stroke-linejoin="miter" stroke-miterlimit="8" stroke-opacity="1" fill="none" fill-rule="evenodd"></path><path d="M2552 2068 2595.22 2084.72" stroke="#000000" stroke-width="42.3958" stroke-linecap="round" stroke-linejoin="miter" stroke-miterlimit="8" stroke-opacity="1" fill="none" fill-rule="evenodd"></path><path d="M2657 2070 2668.46 2086.04" stroke="#000000" stroke-width="42.3958" stroke-linecap="round" stroke-linejoin="miter" stroke-miterlimit="8" stroke-opacity="1" fill="none" fill-rule="evenodd"></path><path d="M0 0 30.9375 64.0624" stroke="#000000" stroke-width="42.3958" stroke-linecap="round" stroke-linejoin="miter" stroke-miterlimit="8" stroke-opacity="1" fill="none" fill-rule="evenodd" transform="matrix(-1 0 0 1 2667.94 2088)"></path><path d="M0 0 51.072 57.7832" stroke="#000000" stroke-width="42.3958" stroke-linecap="round" stroke-linejoin="miter" stroke-miterlimit="8" stroke-opacity="1" fill="none" fill-rule="evenodd" transform="matrix(-1 0 0 1 2632.07 2159)"></path><path d="M2581.5 2222.5 2586.82 2238.21" stroke="#000000" stroke-width="28.6458" stroke-linecap="round" stroke-linejoin="miter" stroke-miterlimit="8" stroke-opacity="1" fill="none" fill-rule="evenodd"></path><path d="M0 0 51.3232 39.3744" stroke="#000000" stroke-width="42.3958" stroke-linecap="round" stroke-linejoin="miter" stroke-miterlimit="8" stroke-opacity="1" fill="none" fill-rule="evenodd" transform="matrix(-1 0 0 1 2586.32 2237)"></path><path d="M0 0 34.375 36.2571" stroke="#000000" stroke-width="28.6458" stroke-linecap="round" stroke-linejoin="miter" stroke-miterlimit="8" stroke-opacity="1" fill="none" fill-rule="evenodd" transform="matrix(-1 0 0 1 2671.88 2189.5)"></path><path d="M0 0 9.16667 39.1842" stroke="#000000" stroke-width="28.6458" stroke-linecap="round" stroke-linejoin="miter" stroke-miterlimit="8" stroke-opacity="1" fill="none" fill-rule="evenodd" transform="matrix(-1 0 0 1 2673.67 2206.5)"></path><path d="M0 0 22.9167 36.1315" stroke="#000000" stroke-width="28.6458" stroke-linecap="round" stroke-linejoin="miter" stroke-miterlimit="8" stroke-opacity="1" fill="none" fill-rule="evenodd" transform="matrix(-1 0 0 1 2680.42 2263.5)"></path><path d="M0 0 1.10361 42.1111" stroke="#000000" stroke-width="28.6458" stroke-linecap="round" stroke-linejoin="miter" stroke-miterlimit="8" stroke-opacity="1" fill="none" fill-rule="evenodd" transform="matrix(-1 0 0 1 2536.6 2232.5)"></path><path d="M0 0 1.10361 18.3333" stroke="#000000" stroke-width="28.6458" stroke-linecap="round" stroke-linejoin="miter" stroke-miterlimit="8" stroke-opacity="1" fill="none" fill-rule="evenodd" transform="matrix(-1 0 0 1 2634.6 2232.5)"></path><path d="M0 0 37.6523 16.8786" stroke="#000000" stroke-width="28.6458" stroke-linecap="round" stroke-linejoin="miter" stroke-miterlimit="8" stroke-opacity="1" fill="none" fill-rule="evenodd" transform="matrix(-1 0 0 1 2633.15 2257.5)"></path><path d="M0 0 32.7373 26.3423" stroke="#000000" stroke-width="28.6458" stroke-linecap="round" stroke-linejoin="miter" stroke-miterlimit="8" stroke-opacity="1" fill="none" fill-rule="evenodd" transform="matrix(-1 0 0 1 2592.24 2276.5)"></path><path d="M2535.5 2280.5 2561.16 2306.81" stroke="#000000" stroke-width="28.6458" stroke-linecap="round" stroke-linejoin="miter" stroke-miterlimit="8" stroke-opacity="1" fill="none" fill-rule="evenodd"></path><path d="M0 0 41.9306 38.6158" stroke="#000000" stroke-width="42.3958" stroke-linecap="round" stroke-linejoin="miter" stroke-miterlimit="8" stroke-opacity="1" fill="none" fill-rule="evenodd" transform="matrix(-1 0 0 1 2788.93 2237)"></path><path d="M2744 2076 2785.25 2235.16" stroke="#000000" stroke-width="42.3958" stroke-linecap="round" stroke-linejoin="miter" stroke-miterlimit="8" stroke-opacity="1" fill="none" fill-rule="evenodd"></path><path d="M2666.5 2251.5 2680.33 2264.4" stroke="#000000" stroke-width="28.6458" stroke-linecap="round" stroke-linejoin="miter" stroke-miterlimit="8" stroke-opacity="1" fill="none" fill-rule="evenodd"></path><path d="M0 0 17.1875 29.3958" stroke="#000000" stroke-width="28.6458" stroke-linecap="round" stroke-linejoin="miter" stroke-miterlimit="8" stroke-opacity="1" fill="none" fill-rule="evenodd" transform="matrix(-1 0 0 1 2749.69 2280.5)"></path><path d="M0 0 19.4792 24.7987" stroke="#000000" stroke-width="28.6458" stroke-linecap="round" stroke-linejoin="miter" stroke-miterlimit="8" stroke-opacity="1" fill="none" fill-rule="evenodd" transform="matrix(-1 0 0 1 2656.98 2304.5)"></path><path d="M2614 2311 2629.8 2331.43" stroke="#000000" stroke-width="42.3958" stroke-linecap="round" stroke-linejoin="miter" stroke-miterlimit="8" stroke-opacity="1" fill="none" fill-rule="evenodd"></path><path d="M2635 2335 2671.67 2343.02" stroke="#000000" stroke-width="42.3958" stroke-linecap="round" stroke-linejoin="miter" stroke-miterlimit="8" stroke-opacity="1" fill="none" fill-rule="evenodd"></path><path d="M0 0 20.625 27.5" stroke="#000000" stroke-width="42.3958" stroke-linecap="round" stroke-linejoin="miter" stroke-miterlimit="8" stroke-opacity="1" fill="none" fill-rule="evenodd" transform="matrix(1 0 0 -1 2680 2341.5)"></path><path d="M0 0 32.0833 0.000360892" stroke="#000000" stroke-width="42.3958" stroke-linecap="round" stroke-linejoin="miter" stroke-miterlimit="8" stroke-opacity="1" fill="none" fill-rule="evenodd" transform="matrix(-1 0 0 1 2732.08 2314)"></path><path d="M2739.04 2066.91 2723 2034" stroke="#000000" stroke-width="42.3958" stroke-linecap="round" stroke-linejoin="miter" stroke-miterlimit="8" stroke-opacity="1" fill="none" fill-rule="evenodd"></path><path d="M2812.27 2057.93 2726 2031" stroke="#000000" stroke-width="42.3958" stroke-linecap="round" stroke-linejoin="miter" stroke-miterlimit="8" stroke-opacity="1" fill="none" fill-rule="evenodd"></path><path d="M2075.48 198.544 2056 192" stroke="#000000" stroke-width="42.3958" stroke-linecap="round" stroke-linejoin="miter" stroke-miterlimit="8" stroke-opacity="1" fill="none" fill-rule="evenodd"></path><path d="M2130.4 183.729 2088 178" stroke="#000000" stroke-width="42.3958" stroke-linecap="round" stroke-linejoin="miter" stroke-miterlimit="8" stroke-opacity="1" fill="none" fill-rule="evenodd"></path><path d="M2168.48 173.544 2149 167" stroke="#000000" stroke-width="42.3958" stroke-linecap="round" stroke-linejoin="miter" stroke-miterlimit="8" stroke-opacity="1" fill="none" fill-rule="evenodd"></path><path d="M2244.29 172.188 2187 155" stroke="#000000" stroke-width="42.3958" stroke-linecap="round" stroke-linejoin="miter" stroke-miterlimit="8" stroke-opacity="1" fill="none" fill-rule="evenodd"></path><path d="M2357.87 164.083 2296 132" stroke="#000000" stroke-width="42.3958" stroke-linecap="round" stroke-linejoin="miter" stroke-miterlimit="8" stroke-opacity="1" fill="none" fill-rule="evenodd"></path><path d="M2288.65 163.982 2260 154" stroke="#000000" stroke-width="42.3958" stroke-linecap="round" stroke-linejoin="miter" stroke-miterlimit="8" stroke-opacity="1" fill="none" fill-rule="evenodd"></path><path d="M0 0 11.4591 24.0625" stroke="#000000" stroke-width="42.3958" stroke-linecap="round" stroke-linejoin="miter" stroke-miterlimit="8" stroke-opacity="1" fill="none" fill-rule="evenodd" transform="matrix(1 0 0 -1 2285 159.063)"></path><path d="M2492.84 171.792 2452 142" stroke="#000000" stroke-width="42.3958" stroke-linecap="round" stroke-linejoin="miter" stroke-miterlimit="8" stroke-opacity="1" fill="none" fill-rule="evenodd"></path><path d="M2561.59 208.92 2509 168" stroke="#000000" stroke-width="42.3958" stroke-linecap="round" stroke-linejoin="miter" stroke-miterlimit="8" stroke-opacity="1" fill="none" fill-rule="evenodd"></path><path d="M2411.32 161.381 2383 146" stroke="#000000" stroke-width="42.3958" stroke-linecap="round" stroke-linejoin="miter" stroke-miterlimit="8" stroke-opacity="1" fill="none" fill-rule="evenodd"></path><path d="M2609.49 221.045 2577 187" stroke="#000000" stroke-width="42.3958" stroke-linecap="round" stroke-linejoin="miter" stroke-miterlimit="8" stroke-opacity="1" fill="none" fill-rule="evenodd"></path><path d="M2701.1 244.753 2671 213" stroke="#000000" stroke-width="42.3958" stroke-linecap="round" stroke-linejoin="miter" stroke-miterlimit="8" stroke-opacity="1" fill="none" fill-rule="evenodd"></path><path d="M2824.67 290.626 2703 249" stroke="#000000" stroke-width="42.3958" stroke-linecap="round" stroke-linejoin="miter" stroke-miterlimit="8" stroke-opacity="1" fill="none" fill-rule="evenodd"></path><path d="M0 0 20.241 0.362697" stroke="#000000" stroke-width="42.3958" stroke-linecap="round" stroke-linejoin="miter" stroke-miterlimit="8" stroke-opacity="1" fill="none" fill-rule="evenodd" transform="matrix(-1 0 0 1 2632.24 219)"></path><path d="M0 0 22.62 21.1981" stroke="#000000" stroke-width="42.3958" stroke-linecap="round" stroke-linejoin="miter" stroke-miterlimit="8" stroke-opacity="1" fill="none" fill-rule="evenodd" transform="matrix(-1 0 0 1 2671.62 214)"></path><path d="M2927.48 334.148 2833 324" stroke="#000000" stroke-width="42.3958" stroke-linecap="round" stroke-linejoin="miter" stroke-miterlimit="8" stroke-opacity="1" fill="none" fill-rule="evenodd"></path><path d="M2899.69 351.532 2890 335" stroke="#000000" stroke-width="42.3958" stroke-linecap="round" stroke-linejoin="miter" stroke-miterlimit="8" stroke-opacity="1" fill="none" fill-rule="evenodd"></path><path d="M2951.38 381.156 2917 376" stroke="#000000" stroke-width="42.3958" stroke-linecap="round" stroke-linejoin="miter" stroke-miterlimit="8" stroke-opacity="1" fill="none" fill-rule="evenodd"></path><path d="M2988.31 469.708 2923 417" stroke="#000000" stroke-width="42.3958" stroke-linecap="round" stroke-linejoin="miter" stroke-miterlimit="8" stroke-opacity="1" fill="none" fill-rule="evenodd"></path><path d="M3028.27 532.375 2979 498" stroke="#000000" stroke-width="42.3958" stroke-linecap="round" stroke-linejoin="miter" stroke-miterlimit="8" stroke-opacity="1" fill="none" fill-rule="evenodd"></path><path d="M3065.62 646.438 2990 533" stroke="#000000" stroke-width="42.3958" stroke-linecap="round" stroke-linejoin="miter" stroke-miterlimit="8" stroke-opacity="1" fill="none" fill-rule="evenodd"></path><path d="M3070.67 714.312 3034 649" stroke="#000000" stroke-width="42.3958" stroke-linecap="round" stroke-linejoin="miter" stroke-miterlimit="8" stroke-opacity="1" fill="none" fill-rule="evenodd"></path><path d="M3092.58 798.835 3033 705" stroke="#000000" stroke-width="42.3958" stroke-linecap="round" stroke-linejoin="miter" stroke-miterlimit="8" stroke-opacity="1" fill="none" fill-rule="evenodd"></path><path d="M0 0 9.16667 29.7917" stroke="#000000" stroke-width="42.3958" stroke-linecap="round" stroke-linejoin="miter" stroke-miterlimit="8" stroke-opacity="1" fill="none" fill-rule="evenodd" transform="matrix(1 0 0 -1 3100 945.792)"></path><path d="M3123.81 897.063 3086 818" stroke="#000000" stroke-width="42.3958" stroke-linecap="round" stroke-linejoin="miter" stroke-miterlimit="8" stroke-opacity="1" fill="none" fill-rule="evenodd"></path><path d="M3124.62 1006.29 3104 949" stroke="#000000" stroke-width="42.3958" stroke-linecap="round" stroke-linejoin="miter" stroke-miterlimit="8" stroke-opacity="1" fill="none" fill-rule="evenodd"></path><path d="M3128.02 1049.15 3120 1024" stroke="#000000" stroke-width="42.3958" stroke-linecap="round" stroke-linejoin="miter" stroke-miterlimit="8" stroke-opacity="1" fill="none" fill-rule="evenodd"></path><path d="M3124.19 1066.4 3107 1055" stroke="#000000" stroke-width="42.3958" stroke-linecap="round" stroke-linejoin="miter" stroke-miterlimit="8" stroke-opacity="1" fill="none" fill-rule="evenodd"></path><path d="M0 0 16.0417 19.4792" stroke="#000000" stroke-width="42.3958" stroke-linecap="round" stroke-linejoin="miter" stroke-miterlimit="8" stroke-opacity="1" fill="none" fill-rule="evenodd" transform="matrix(1 0 0 -1 3109 1115.48)"></path><path d="M3196.52 1187.1 3106 1123" stroke="#000000" stroke-width="42.3958" stroke-linecap="round" stroke-linejoin="miter" stroke-miterlimit="8" stroke-opacity="1" fill="none" fill-rule="evenodd"></path><path d="M3206.79 1258.7 3122 1180" stroke="#000000" stroke-width="42.3958" stroke-linecap="round" stroke-linejoin="miter" stroke-miterlimit="8" stroke-opacity="1" fill="none" fill-rule="evenodd"></path><path d="M3295.42 1342 3190 1287" stroke="#000000" stroke-width="42.3958" stroke-linecap="round" stroke-linejoin="miter" stroke-miterlimit="8" stroke-opacity="1" fill="none" fill-rule="evenodd"></path><path d="M3251.65 1360.48 3223 1341" stroke="#000000" stroke-width="42.3958" stroke-linecap="round" stroke-linejoin="miter" stroke-miterlimit="8" stroke-opacity="1" fill="none" fill-rule="evenodd"></path><path d="M3295.67 1411.04 3259 1395" stroke="#000000" stroke-width="42.3958" stroke-linecap="round" stroke-linejoin="miter" stroke-miterlimit="8" stroke-opacity="1" fill="none" fill-rule="evenodd"></path><path d="M3272 1498 3316.69 1529.79" stroke="#000000" stroke-width="42.3958" stroke-linecap="round" stroke-linejoin="miter" stroke-miterlimit="8" stroke-opacity="1" fill="none" fill-rule="evenodd"></path><path d="M0 0 48.125 8.31893" stroke="#000000" stroke-width="42.3958" stroke-linecap="round" stroke-linejoin="miter" stroke-miterlimit="8" stroke-opacity="1" fill="none" fill-rule="evenodd" transform="matrix(1 0 0 -1 3230 1609.32)"></path><path d="M3277 1545 3327.42 1566.47" stroke="#000000" stroke-width="42.3958" stroke-linecap="round" stroke-linejoin="miter" stroke-miterlimit="8" stroke-opacity="1" fill="none" fill-rule="evenodd"></path><path d="M3167 1748 3191.06 1759.68" stroke="#000000" stroke-width="42.3958" stroke-linecap="round" stroke-linejoin="miter" stroke-miterlimit="8" stroke-opacity="1" fill="none" fill-rule="evenodd"></path><path d="M3188 1706 3210.92 1710.82" stroke="#000000" stroke-width="42.3958" stroke-linecap="round" stroke-linejoin="miter" stroke-miterlimit="8" stroke-opacity="1" fill="none" fill-rule="evenodd"></path><path d="M3234 1649 3234 1667.27" stroke="#000000" stroke-width="42.3958" stroke-linecap="round" stroke-linejoin="miter" stroke-miterlimit="8" stroke-opacity="1" fill="none" fill-rule="evenodd"></path><path d="M3211 1665 3236.21 1665" stroke="#000000" stroke-width="42.3958" stroke-linecap="round" stroke-linejoin="miter" stroke-miterlimit="8" stroke-opacity="1" fill="none" fill-rule="evenodd"></path><path d="M3278 1558 3278 1576.27" stroke="#000000" stroke-width="42.3958" stroke-linecap="round" stroke-linejoin="miter" stroke-miterlimit="8" stroke-opacity="1" fill="none" fill-rule="evenodd"></path><path d="M2793 2015 2841.12 2042.72" stroke="#000000" stroke-width="42.3958" stroke-linecap="round" stroke-linejoin="miter" stroke-miterlimit="8" stroke-opacity="1" fill="none" fill-rule="evenodd"></path><path d="M2800 2010 2885.94 2028.98" stroke="#000000" stroke-width="42.3958" stroke-linecap="round" stroke-linejoin="miter" stroke-miterlimit="8" stroke-opacity="1" fill="none" fill-rule="evenodd"></path><path d="M3124 1746 3164.1 1746" stroke="#000000" stroke-width="42.3958" stroke-linecap="round" stroke-linejoin="miter" stroke-miterlimit="8" stroke-opacity="1" fill="none" fill-rule="evenodd"></path><path d="M0 0 41.25 32.0938" stroke="#000000" stroke-width="42.3958" stroke-linecap="round" stroke-linejoin="miter" stroke-miterlimit="8" stroke-opacity="1" fill="none" fill-rule="evenodd" transform="matrix(1 0 0 -1 3075 1782.09)"></path><path d="M0 0 46.9792 14.0033" stroke="#000000" stroke-width="42.3958" stroke-linecap="round" stroke-linejoin="miter" stroke-miterlimit="8" stroke-opacity="1" fill="none" fill-rule="evenodd" transform="matrix(1 0 0 -1 3057 1850)"></path><path d="M0 0 53.8542 30.9375" stroke="#000000" stroke-width="42.3958" stroke-linecap="round" stroke-linejoin="miter" stroke-miterlimit="8" stroke-opacity="1" fill="none" fill-rule="evenodd" transform="matrix(1 0 0 -1 2997 1882.94)"></path><path d="M3084.08 1897.17 2997 1888" stroke="#000000" stroke-width="42.3958" stroke-linecap="round" stroke-linejoin="miter" stroke-miterlimit="8" stroke-opacity="1" fill="none" fill-rule="evenodd"></path><path d="M0 0 120.312 8.5416" stroke="#000000" stroke-width="42.3958" stroke-linecap="round" stroke-linejoin="miter" stroke-miterlimit="8" stroke-opacity="1" fill="none" fill-rule="evenodd" transform="matrix(-1 0 0 1 3085.31 1912)"></path><path d="M0 0 59.5833 6.75591" stroke="#000000" stroke-width="42.3958" stroke-linecap="round" stroke-linejoin="miter" stroke-miterlimit="8" stroke-opacity="1" fill="none" fill-rule="evenodd" transform="matrix(-1 0 0 1 2986.58 1942)"></path><path d="M2916.12 1988.39 2868 1963" stroke="#000000" stroke-width="42.3958" stroke-linecap="round" stroke-linejoin="miter" stroke-miterlimit="8" stroke-opacity="1" fill="none" fill-rule="evenodd"></path><path d="M2889.77 2017.52 2868 1968" stroke="#000000" stroke-width="42.3958" stroke-linecap="round" stroke-linejoin="miter" stroke-miterlimit="8" stroke-opacity="1" fill="none" fill-rule="evenodd"></path><path d="M3124.5 1801.83 3097 1780" stroke="#000000" stroke-width="42.3958" stroke-linecap="round" stroke-linejoin="miter" stroke-miterlimit="8" stroke-opacity="1" fill="none" fill-rule="evenodd"></path><path d="M3312.67 1468.04 3276 1452" stroke="#000000" stroke-width="42.3958" stroke-linecap="round" stroke-linejoin="miter" stroke-miterlimit="8" stroke-opacity="1" fill="none" fill-rule="evenodd"></path></g></g></svg></svg></g></g><defs><clipPath id="SvgjsClipPath1122"><rect width="1000" height="1000" x="0" y="0" rx="500" ry="500"></rect></clipPath></defs></svg>