<svg width="2223" height="2374" xmlns="http://www.w3.org/2000/svg" xmlns:xlink="http://www.w3.org/1999/xlink" xml:space="preserve" overflow="hidden"><g transform="translate(-1187 -50)"><g><path d="M0 0 45.6922 86.3078" stroke="#FFFFFF" stroke-width="156.979" stroke-linecap="round" stroke-linejoin="miter" stroke-miterlimit="8" stroke-opacity="1" fill="none" fill-rule="evenodd" transform="matrix(-1 0 0 1 1383.19 885.5)"/><path d="M0 0 112.45 111.146" stroke="#FFFFFF" stroke-width="156.979" stroke-linecap="round" stroke-linejoin="miter" stroke-miterlimit="8" stroke-opacity="1" fill="none" fill-rule="evenodd" transform="matrix(-1 0 0 1 1458.95 763.5)"/><path d="M0 0 51.0688 36.9135" stroke="#FFFFFF" stroke-width="156.979" stroke-linecap="round" stroke-linejoin="miter" stroke-miterlimit="8" stroke-opacity="1" fill="none" fill-rule="evenodd" transform="matrix(-1 0 0 1 1468.57 714.5)"/><path d="M0 0 42.3958 21.7708" stroke="#FFFFFF" stroke-width="156.979" stroke-linecap="round" stroke-linejoin="miter" stroke-miterlimit="8" stroke-opacity="1" fill="none" fill-rule="evenodd" transform="matrix(1 0 0 -1 1452.5 692.271)"/><path d="M0 0 79.0625 10.3125" stroke="#FFFFFF" stroke-width="156.979" stroke-linecap="round" stroke-linejoin="miter" stroke-miterlimit="8" stroke-opacity="1" fill="none" fill-rule="evenodd" transform="matrix(1 0 0 -1 1485.5 630.812)"/><path d="M1485.5 631.5 1507.27 647.542" stroke="#FFFFFF" stroke-width="156.979" stroke-linecap="round" stroke-linejoin="miter" stroke-miterlimit="8" stroke-opacity="1" fill="none" fill-rule="evenodd"/><path d="M1581.5 595.5 1600.98 601.229" stroke="#FFFFFF" stroke-width="156.979" stroke-linecap="round" stroke-linejoin="miter" stroke-miterlimit="8" stroke-opacity="1" fill="none" fill-rule="evenodd"/><path d="M1604.5 561.5 1623.98 567.229" stroke="#FFFFFF" stroke-width="156.979" stroke-linecap="round" stroke-linejoin="miter" stroke-miterlimit="8" stroke-opacity="1" fill="none" fill-rule="evenodd"/><path d="M1655.5 530.5 1674.98 532.792" stroke="#FFFFFF" stroke-width="156.979" stroke-linecap="round" stroke-linejoin="miter" stroke-miterlimit="8" stroke-opacity="1" fill="none" fill-rule="evenodd"/><path d="M1736.35 524.687 1682.5 507.5" stroke="#FFFFFF" stroke-width="156.979" stroke-linecap="round" stroke-linejoin="miter" stroke-miterlimit="8" stroke-opacity="1" fill="none" fill-rule="evenodd"/><path d="M0 0 36.6667 22.9167" stroke="#FFFFFF" stroke-width="156.979" stroke-linecap="round" stroke-linejoin="miter" stroke-miterlimit="8" stroke-opacity="1" fill="none" fill-rule="evenodd" transform="matrix(-1 0 0 1 1777.17 458.5)"/><path d="M0 0 30.9375 22.9167" stroke="#FFFFFF" stroke-width="156.979" stroke-linecap="round" stroke-linejoin="miter" stroke-miterlimit="8" stroke-opacity="1" fill="none" fill-rule="evenodd" transform="matrix(-1 0 0 1 1808.44 411.5)"/><path d="M1819.5 363.5 1819.5 389.854" stroke="#FFFFFF" stroke-width="156.979" stroke-linecap="round" stroke-linejoin="miter" stroke-miterlimit="8" stroke-opacity="1" fill="none" fill-rule="evenodd"/><path d="M0 0 48.125 22.9167" stroke="#FFFFFF" stroke-width="156.979" stroke-linecap="round" stroke-linejoin="miter" stroke-miterlimit="8" stroke-opacity="1" fill="none" fill-rule="evenodd" transform="matrix(-1 0 0 1 1861.63 340.5)"/><path d="M1847.5 325.5 1862.4 340.396" stroke="#FFFFFF" stroke-width="156.979" stroke-linecap="round" stroke-linejoin="miter" stroke-miterlimit="8" stroke-opacity="1" fill="none" fill-rule="evenodd"/><path d="M0 0 38.1597 6.7458" stroke="#FFFFFF" stroke-width="156.979" stroke-linecap="round" stroke-linejoin="miter" stroke-miterlimit="8" stroke-opacity="1" fill="none" fill-rule="evenodd" transform="matrix(-1 0 0 1 1887.66 290.5)"/><path d="M0 0 35.8114 6.0601" stroke="#FFFFFF" stroke-width="156.979" stroke-linecap="round" stroke-linejoin="miter" stroke-miterlimit="8" stroke-opacity="1" fill="none" fill-rule="evenodd" transform="matrix(-1 0 0 1 1934.31 258.5)"/><path d="M0 0 46.1239 1.47677" stroke="#FFFFFF" stroke-width="156.979" stroke-linecap="round" stroke-linejoin="miter" stroke-miterlimit="8" stroke-opacity="1" fill="none" fill-rule="evenodd" transform="matrix(-1 0 0 1 1994.62 235.5)"/><path d="M0 0 48.4155 1.47677" stroke="#FFFFFF" stroke-width="156.979" stroke-linecap="round" stroke-linejoin="miter" stroke-miterlimit="8" stroke-opacity="1" fill="none" fill-rule="evenodd" transform="matrix(-1 0 0 1 1972.92 247.5)"/><path d="M2058.9 219.812 2016.5 209.5" stroke="#FFFFFF" stroke-width="156.979" stroke-linecap="round" stroke-linejoin="miter" stroke-miterlimit="8" stroke-opacity="1" fill="none" fill-rule="evenodd"/><path d="M0 0 53.7834 105.293" stroke="#FFFFFF" stroke-width="156.979" stroke-linecap="round" stroke-linejoin="miter" stroke-miterlimit="8" stroke-opacity="1" fill="none" fill-rule="evenodd" transform="matrix(-1 0 0 1 1375.28 971.5)"/><path d="M0 0 7.72129 41.25" stroke="#FFFFFF" stroke-width="156.979" stroke-linecap="round" stroke-linejoin="miter" stroke-miterlimit="8" stroke-opacity="1" fill="none" fill-rule="evenodd" transform="matrix(-1 0 0 1 1320.22 1075.5)"/><path d="M0 0 43.1183 64.0432" stroke="#FFFFFF" stroke-width="156.979" stroke-linecap="round" stroke-linejoin="miter" stroke-miterlimit="8" stroke-opacity="1" fill="none" fill-rule="evenodd" transform="matrix(-1 0 0 1 1311.62 1115.5)"/><path d="M1270.5 1177.5 1309.04 1198.25" stroke="#FFFFFF" stroke-width="156.979" stroke-linecap="round" stroke-linejoin="miter" stroke-miterlimit="8" stroke-opacity="1" fill="none" fill-rule="evenodd"/><path d="M0 0 30.9375 60.7292" stroke="#FFFFFF" stroke-width="156.979" stroke-linecap="round" stroke-linejoin="miter" stroke-miterlimit="8" stroke-opacity="1" fill="none" fill-rule="evenodd" transform="matrix(-1 0 0 1 1308.44 1198.5)"/><path d="M0 0 21.7708 88.2292" stroke="#FFFFFF" stroke-width="156.979" stroke-linecap="round" stroke-linejoin="miter" stroke-miterlimit="8" stroke-opacity="1" fill="none" fill-rule="evenodd" transform="matrix(-1 0 0 1 1305.27 1262.5)"/><path d="M0 0 26.7154 153.542" stroke="#FFFFFF" stroke-width="156.979" stroke-linecap="round" stroke-linejoin="miter" stroke-miterlimit="8" stroke-opacity="1" fill="none" fill-rule="evenodd" transform="matrix(-1 0 0 1 1316.22 1361.5)"/><path d="M1320.5 1498.5 1338.83 1654.33" stroke="#FFFFFF" stroke-width="156.979" stroke-linecap="round" stroke-linejoin="miter" stroke-miterlimit="8" stroke-opacity="1" fill="none" fill-rule="evenodd"/><path d="M1372.5 1677.5 1379.98 1718.81" stroke="#FFFFFF" stroke-width="156.979" stroke-linecap="round" stroke-linejoin="miter" stroke-miterlimit="8" stroke-opacity="1" fill="none" fill-rule="evenodd"/><path d="M1416.5 1727.5 1459.36 1831.79" stroke="#FFFFFF" stroke-width="156.979" stroke-linecap="round" stroke-linejoin="miter" stroke-miterlimit="8" stroke-opacity="1" fill="none" fill-rule="evenodd"/><path d="M1481.5 1792.5 1516.64 1843.21" stroke="#FFFFFF" stroke-width="156.979" stroke-linecap="round" stroke-linejoin="miter" stroke-miterlimit="8" stroke-opacity="1" fill="none" fill-rule="evenodd"/><path d="M1528.5 1812.5 1614.36 1912.5" stroke="#FFFFFF" stroke-width="156.979" stroke-linecap="round" stroke-linejoin="miter" stroke-miterlimit="8" stroke-opacity="1" fill="none" fill-rule="evenodd"/><path d="M1646.5 1913.5 1717.36 1955.64" stroke="#FFFFFF" stroke-width="156.979" stroke-linecap="round" stroke-linejoin="miter" stroke-miterlimit="8" stroke-opacity="1" fill="none" fill-rule="evenodd"/><path d="M1755.5 1988.5 1838.36 1998.81" stroke="#FFFFFF" stroke-width="156.979" stroke-linecap="round" stroke-linejoin="miter" stroke-miterlimit="8" stroke-opacity="1" fill="none" fill-rule="evenodd"/><path d="M1843.5 2017.5 1845.11 2161.67" stroke="#FFFFFF" stroke-width="156.979" stroke-linecap="round" stroke-linejoin="miter" stroke-miterlimit="8" stroke-opacity="1" fill="none" fill-rule="evenodd"/><path d="M1847.5 2162.5 1862.4 2210.62" stroke="#FFFFFF" stroke-width="156.979" stroke-linecap="round" stroke-linejoin="miter" stroke-miterlimit="8" stroke-opacity="1" fill="none" fill-rule="evenodd"/><path d="M1902.5 2152.5 1931.44 2199.48" stroke="#FFFFFF" stroke-width="156.979" stroke-linecap="round" stroke-linejoin="miter" stroke-miterlimit="8" stroke-opacity="1" fill="none" fill-rule="evenodd"/><path d="M1935.5 2201.5 1935.5 2235.87" stroke="#FFFFFF" stroke-width="156.979" stroke-linecap="round" stroke-linejoin="miter" stroke-miterlimit="8" stroke-opacity="1" fill="none" fill-rule="evenodd"/><path d="M0 0 19.4792 24.0625" stroke="#FFFFFF" stroke-width="156.979" stroke-linecap="round" stroke-linejoin="miter" stroke-miterlimit="8" stroke-opacity="1" fill="none" fill-rule="evenodd" transform="matrix(-1 0 0 1 1938.98 2236.5)"/><path d="M0 0 19.4792 24.0625" stroke="#FFFFFF" stroke-width="156.979" stroke-linecap="round" stroke-linejoin="miter" stroke-miterlimit="8" stroke-opacity="1" fill="none" fill-rule="evenodd" transform="matrix(-1 0 0 1 1901.98 2218.5)"/><path d="M1900.5 2152.5 1905.95 2182.36" stroke="#FFFFFF" stroke-width="156.979" stroke-linecap="round" stroke-linejoin="miter" stroke-miterlimit="8" stroke-opacity="1" fill="none" fill-rule="evenodd"/><path d="M1907.5 2185.5 1907.5 2219.88" stroke="#FFFFFF" stroke-width="156.979" stroke-linecap="round" stroke-linejoin="miter" stroke-miterlimit="8" stroke-opacity="1" fill="none" fill-rule="evenodd"/><path d="M0 0 4.5707 17.1875" stroke="#FFFFFF" stroke-width="156.979" stroke-linecap="round" stroke-linejoin="miter" stroke-miterlimit="8" stroke-opacity="1" fill="none" fill-rule="evenodd" transform="matrix(-1 0 0 1 1862.07 2213.5)"/><path d="M1812.5 2203.5 1821.95 2249.01" stroke="#FFFFFF" stroke-width="156.979" stroke-linecap="round" stroke-linejoin="miter" stroke-miterlimit="8" stroke-opacity="1" fill="none" fill-rule="evenodd"/><path d="M1819.5 2248.5 1854.45 2251.92" stroke="#FFFFFF" stroke-width="156.979" stroke-linecap="round" stroke-linejoin="miter" stroke-miterlimit="8" stroke-opacity="1" fill="none" fill-rule="evenodd"/><path d="M1822.5 2228.5 1857.45 2231.92" stroke="#FFFFFF" stroke-width="156.979" stroke-linecap="round" stroke-linejoin="miter" stroke-miterlimit="8" stroke-opacity="1" fill="none" fill-rule="evenodd"/><path d="M1857.5 2257.5 1888.57 2274.58" stroke="#FFFFFF" stroke-width="156.979" stroke-linecap="round" stroke-linejoin="miter" stroke-miterlimit="8" stroke-opacity="1" fill="none" fill-rule="evenodd"/><path d="M0 0 27.5004 9.3832" stroke="#FFFFFF" stroke-width="156.979" stroke-linecap="round" stroke-linejoin="miter" stroke-miterlimit="8" stroke-opacity="1" fill="none" fill-rule="evenodd" transform="matrix(-1 0 0 1 1882 2242.5)"/><path d="M1885.5 2274.5 1931.49 2274.5" stroke="#FFFFFF" stroke-width="156.979" stroke-linecap="round" stroke-linejoin="miter" stroke-miterlimit="8" stroke-opacity="1" fill="none" fill-rule="evenodd"/><path d="M0 0 28.3593 13.6627" stroke="#FFFFFF" stroke-width="156.979" stroke-linecap="round" stroke-linejoin="miter" stroke-miterlimit="8" stroke-opacity="1" fill="none" fill-rule="evenodd" transform="matrix(-1 0 0 1 1918.86 2260.5)"/><path d="M1957.5 2144.5 1982.87 2186.48" stroke="#FFFFFF" stroke-width="156.979" stroke-linecap="round" stroke-linejoin="miter" stroke-miterlimit="8" stroke-opacity="1" fill="none" fill-rule="evenodd"/><path d="M1956.5 2144.5 2003.04 2167.43" stroke="#FFFFFF" stroke-width="156.979" stroke-linecap="round" stroke-linejoin="miter" stroke-miterlimit="8" stroke-opacity="1" fill="none" fill-rule="evenodd"/><path d="M0 0 0.127756 55.445" stroke="#FFFFFF" stroke-width="156.979" stroke-linecap="round" stroke-linejoin="miter" stroke-miterlimit="8" stroke-opacity="1" fill="none" fill-rule="evenodd" transform="matrix(-1 0 0 1 2003.63 2166.5)"/><path d="M0 0 0.127756 55.445" stroke="#FFFFFF" stroke-width="156.979" stroke-linecap="round" stroke-linejoin="miter" stroke-miterlimit="8" stroke-opacity="1" fill="none" fill-rule="evenodd" transform="matrix(-1 0 0 1 1982.63 2182.5)"/><path d="M0 0 26.7205 32.7701" stroke="#FFFFFF" stroke-width="156.979" stroke-linecap="round" stroke-linejoin="miter" stroke-miterlimit="8" stroke-opacity="1" fill="none" fill-rule="evenodd" transform="matrix(-1 0 0 1 2003.22 2218.5)"/><path d="M0 0 44.0069 23.2462" stroke="#FFFFFF" stroke-width="156.979" stroke-linecap="round" stroke-linejoin="miter" stroke-miterlimit="8" stroke-opacity="1" fill="none" fill-rule="evenodd" transform="matrix(-1 0 0 1 1975.51 2250.5)"/><path d="M1965.5 2260.5 1995.18 2280.33" stroke="#FFFFFF" stroke-width="156.979" stroke-linecap="round" stroke-linejoin="miter" stroke-miterlimit="8" stroke-opacity="1" fill="none" fill-rule="evenodd"/><path d="M0 0 26.7205 32.7701" stroke="#FFFFFF" stroke-width="156.979" stroke-linecap="round" stroke-linejoin="miter" stroke-miterlimit="8" stroke-opacity="1" fill="none" fill-rule="evenodd" transform="matrix(-1 0 0 1 2022.22 2247.5)"/><path d="M0 0 21.5604 3.40827" stroke="#FFFFFF" stroke-width="156.979" stroke-linecap="round" stroke-linejoin="miter" stroke-miterlimit="8" stroke-opacity="1" fill="none" fill-rule="evenodd" transform="matrix(1 0 0 -1 2021.5 2249.91)"/><path d="M0 0 5.32569 73.7783" stroke="#FFFFFF" stroke-width="156.979" stroke-linecap="round" stroke-linejoin="miter" stroke-miterlimit="8" stroke-opacity="1" fill="none" fill-rule="evenodd" transform="matrix(-1 0 0 1 2048.83 2176.5)"/><path d="M1941.5 2045.5 1992.32 2094.93" stroke="#FFFFFF" stroke-width="156.979" stroke-linecap="round" stroke-linejoin="miter" stroke-miterlimit="8" stroke-opacity="1" fill="none" fill-rule="evenodd"/><path d="M1997.5 2100.5 2066.69 2144.44" stroke="#FFFFFF" stroke-width="156.979" stroke-linecap="round" stroke-linejoin="miter" stroke-miterlimit="8" stroke-opacity="1" fill="none" fill-rule="evenodd"/><path d="M0 0 13.6782 23.6825" stroke="#FFFFFF" stroke-width="156.979" stroke-linecap="round" stroke-linejoin="miter" stroke-miterlimit="8" stroke-opacity="1" fill="none" fill-rule="evenodd" transform="matrix(-1 0 0 1 2068.18 2147.5)"/><path d="M1954.5 2034.5 2075.4 2036.08" stroke="#FFFFFF" stroke-width="156.979" stroke-linecap="round" stroke-linejoin="miter" stroke-miterlimit="8" stroke-opacity="1" fill="none" fill-rule="evenodd"/><path d="M2054.5 2043.5 2175.4 2045.08" stroke="#FFFFFF" stroke-width="156.979" stroke-linecap="round" stroke-linejoin="miter" stroke-miterlimit="8" stroke-opacity="1" fill="none" fill-rule="evenodd"/><path d="M2182.5 2051.5 2299.38 2088.65" stroke="#FFFFFF" stroke-width="156.979" stroke-linecap="round" stroke-linejoin="miter" stroke-miterlimit="8" stroke-opacity="1" fill="none" fill-rule="evenodd"/><path d="M2312.5 2059.5 2466.04 2094.16" stroke="#FFFFFF" stroke-width="156.979" stroke-linecap="round" stroke-linejoin="miter" stroke-miterlimit="8" stroke-opacity="1" fill="none" fill-rule="evenodd"/><path d="M2460.5 2058.5 2525.48 2075.83" stroke="#FFFFFF" stroke-width="156.979" stroke-linecap="round" stroke-linejoin="miter" stroke-miterlimit="8" stroke-opacity="1" fill="none" fill-rule="evenodd"/><path d="M2587.5 2043.5 2652.89 2064.3" stroke="#FFFFFF" stroke-width="156.979" stroke-linecap="round" stroke-linejoin="miter" stroke-miterlimit="8" stroke-opacity="1" fill="none" fill-rule="evenodd"/><path d="M2552.5 2068.5 2595.72 2085.22" stroke="#FFFFFF" stroke-width="156.979" stroke-linecap="round" stroke-linejoin="miter" stroke-miterlimit="8" stroke-opacity="1" fill="none" fill-rule="evenodd"/><path d="M2657.5 2070.5 2668.96 2086.54" stroke="#FFFFFF" stroke-width="156.979" stroke-linecap="round" stroke-linejoin="miter" stroke-miterlimit="8" stroke-opacity="1" fill="none" fill-rule="evenodd"/><path d="M0 0 30.9375 64.0624" stroke="#FFFFFF" stroke-width="156.979" stroke-linecap="round" stroke-linejoin="miter" stroke-miterlimit="8" stroke-opacity="1" fill="none" fill-rule="evenodd" transform="matrix(-1 0 0 1 2668.44 2088.5)"/><path d="M0 0 51.072 57.7832" stroke="#FFFFFF" stroke-width="156.979" stroke-linecap="round" stroke-linejoin="miter" stroke-miterlimit="8" stroke-opacity="1" fill="none" fill-rule="evenodd" transform="matrix(-1 0 0 1 2632.57 2159.5)"/><path d="M2581.5 2222.5 2586.82 2238.21" stroke="#FFFFFF" stroke-width="156.979" stroke-linecap="round" stroke-linejoin="miter" stroke-miterlimit="8" stroke-opacity="1" fill="none" fill-rule="evenodd"/><path d="M0 0 51.3232 39.3744" stroke="#FFFFFF" stroke-width="156.979" stroke-linecap="round" stroke-linejoin="miter" stroke-miterlimit="8" stroke-opacity="1" fill="none" fill-rule="evenodd" transform="matrix(-1 0 0 1 2586.82 2237.5)"/><path d="M0 0 34.375 36.2571" stroke="#FFFFFF" stroke-width="156.979" stroke-linecap="round" stroke-linejoin="miter" stroke-miterlimit="8" stroke-opacity="1" fill="none" fill-rule="evenodd" transform="matrix(-1 0 0 1 2671.88 2189.5)"/><path d="M0 0 9.16667 39.1842" stroke="#FFFFFF" stroke-width="156.979" stroke-linecap="round" stroke-linejoin="miter" stroke-miterlimit="8" stroke-opacity="1" fill="none" fill-rule="evenodd" transform="matrix(-1 0 0 1 2673.67 2206.5)"/><path d="M0 0 22.9167 36.1315" stroke="#FFFFFF" stroke-width="156.979" stroke-linecap="round" stroke-linejoin="miter" stroke-miterlimit="8" stroke-opacity="1" fill="none" fill-rule="evenodd" transform="matrix(-1 0 0 1 2680.42 2263.5)"/><path d="M0 0 1.10361 42.1111" stroke="#FFFFFF" stroke-width="156.979" stroke-linecap="round" stroke-linejoin="miter" stroke-miterlimit="8" stroke-opacity="1" fill="none" fill-rule="evenodd" transform="matrix(-1 0 0 1 2536.6 2232.5)"/><path d="M0 0 1.10361 18.3333" stroke="#FFFFFF" stroke-width="156.979" stroke-linecap="round" stroke-linejoin="miter" stroke-miterlimit="8" stroke-opacity="1" fill="none" fill-rule="evenodd" transform="matrix(-1 0 0 1 2634.6 2232.5)"/><path d="M0 0 37.6523 16.8786" stroke="#FFFFFF" stroke-width="156.979" stroke-linecap="round" stroke-linejoin="miter" stroke-miterlimit="8" stroke-opacity="1" fill="none" fill-rule="evenodd" transform="matrix(-1 0 0 1 2633.15 2257.5)"/><path d="M0 0 32.7373 26.3423" stroke="#FFFFFF" stroke-width="156.979" stroke-linecap="round" stroke-linejoin="miter" stroke-miterlimit="8" stroke-opacity="1" fill="none" fill-rule="evenodd" transform="matrix(-1 0 0 1 2592.24 2276.5)"/><path d="M2535.5 2280.5 2561.16 2306.81" stroke="#FFFFFF" stroke-width="156.979" stroke-linecap="round" stroke-linejoin="miter" stroke-miterlimit="8" stroke-opacity="1" fill="none" fill-rule="evenodd"/><path d="M0 0 41.9306 38.6158" stroke="#FFFFFF" stroke-width="156.979" stroke-linecap="round" stroke-linejoin="miter" stroke-miterlimit="8" stroke-opacity="1" fill="none" fill-rule="evenodd" transform="matrix(-1 0 0 1 2789.43 2237.5)"/><path d="M2744.5 2076.5 2785.75 2235.66" stroke="#FFFFFF" stroke-width="156.979" stroke-linecap="round" stroke-linejoin="miter" stroke-miterlimit="8" stroke-opacity="1" fill="none" fill-rule="evenodd"/><path d="M2666.5 2251.5 2680.33 2264.4" stroke="#FFFFFF" stroke-width="156.979" stroke-linecap="round" stroke-linejoin="miter" stroke-miterlimit="8" stroke-opacity="1" fill="none" fill-rule="evenodd"/><path d="M0 0 17.1875 29.3958" stroke="#FFFFFF" stroke-width="156.979" stroke-linecap="round" stroke-linejoin="miter" stroke-miterlimit="8" stroke-opacity="1" fill="none" fill-rule="evenodd" transform="matrix(-1 0 0 1 2749.69 2280.5)"/><path d="M0 0 19.4792 24.7987" stroke="#FFFFFF" stroke-width="156.979" stroke-linecap="round" stroke-linejoin="miter" stroke-miterlimit="8" stroke-opacity="1" fill="none" fill-rule="evenodd" transform="matrix(-1 0 0 1 2656.98 2304.5)"/><path d="M2614.5 2311.5 2630.3 2331.93" stroke="#FFFFFF" stroke-width="156.979" stroke-linecap="round" stroke-linejoin="miter" stroke-miterlimit="8" stroke-opacity="1" fill="none" fill-rule="evenodd"/><path d="M2635.5 2335.5 2672.17 2343.52" stroke="#FFFFFF" stroke-width="156.979" stroke-linecap="round" stroke-linejoin="miter" stroke-miterlimit="8" stroke-opacity="1" fill="none" fill-rule="evenodd"/><path d="M0 0 20.625 27.5" stroke="#FFFFFF" stroke-width="156.979" stroke-linecap="round" stroke-linejoin="miter" stroke-miterlimit="8" stroke-opacity="1" fill="none" fill-rule="evenodd" transform="matrix(1 0 0 -1 2680.5 2342)"/><path d="M0 0 32.0833 0.000360892" stroke="#FFFFFF" stroke-width="156.979" stroke-linecap="round" stroke-linejoin="miter" stroke-miterlimit="8" stroke-opacity="1" fill="none" fill-rule="evenodd" transform="matrix(-1 0 0 1 2732.58 2314.5)"/><path d="M2739.54 2067.41 2723.5 2034.5" stroke="#FFFFFF" stroke-width="156.979" stroke-linecap="round" stroke-linejoin="miter" stroke-miterlimit="8" stroke-opacity="1" fill="none" fill-rule="evenodd"/><path d="M2812.77 2058.43 2726.5 2031.5" stroke="#FFFFFF" stroke-width="156.979" stroke-linecap="round" stroke-linejoin="miter" stroke-miterlimit="8" stroke-opacity="1" fill="none" fill-rule="evenodd"/><path d="M2075.98 199.044 2056.5 192.5" stroke="#FFFFFF" stroke-width="156.979" stroke-linecap="round" stroke-linejoin="miter" stroke-miterlimit="8" stroke-opacity="1" fill="none" fill-rule="evenodd"/><path d="M2130.9 184.229 2088.5 178.5" stroke="#FFFFFF" stroke-width="156.979" stroke-linecap="round" stroke-linejoin="miter" stroke-miterlimit="8" stroke-opacity="1" fill="none" fill-rule="evenodd"/><path d="M2168.98 174.044 2149.5 167.5" stroke="#FFFFFF" stroke-width="156.979" stroke-linecap="round" stroke-linejoin="miter" stroke-miterlimit="8" stroke-opacity="1" fill="none" fill-rule="evenodd"/><path d="M2244.79 172.687 2187.5 155.5" stroke="#FFFFFF" stroke-width="156.979" stroke-linecap="round" stroke-linejoin="miter" stroke-miterlimit="8" stroke-opacity="1" fill="none" fill-rule="evenodd"/><path d="M2358.37 164.583 2296.5 132.5" stroke="#FFFFFF" stroke-width="156.979" stroke-linecap="round" stroke-linejoin="miter" stroke-miterlimit="8" stroke-opacity="1" fill="none" fill-rule="evenodd"/><path d="M2289.15 164.482 2260.5 154.5" stroke="#FFFFFF" stroke-width="156.979" stroke-linecap="round" stroke-linejoin="miter" stroke-miterlimit="8" stroke-opacity="1" fill="none" fill-rule="evenodd"/><path d="M0 0 11.4591 24.0625" stroke="#FFFFFF" stroke-width="156.979" stroke-linecap="round" stroke-linejoin="miter" stroke-miterlimit="8" stroke-opacity="1" fill="none" fill-rule="evenodd" transform="matrix(1 0 0 -1 2285.5 159.562)"/><path d="M2493.34 172.292 2452.5 142.5" stroke="#FFFFFF" stroke-width="156.979" stroke-linecap="round" stroke-linejoin="miter" stroke-miterlimit="8" stroke-opacity="1" fill="none" fill-rule="evenodd"/><path d="M2562.09 209.42 2509.5 168.5" stroke="#FFFFFF" stroke-width="156.979" stroke-linecap="round" stroke-linejoin="miter" stroke-miterlimit="8" stroke-opacity="1" fill="none" fill-rule="evenodd"/><path d="M2411.82 161.881 2383.5 146.5" stroke="#FFFFFF" stroke-width="156.979" stroke-linecap="round" stroke-linejoin="miter" stroke-miterlimit="8" stroke-opacity="1" fill="none" fill-rule="evenodd"/><path d="M2609.99 221.545 2577.5 187.5" stroke="#FFFFFF" stroke-width="156.979" stroke-linecap="round" stroke-linejoin="miter" stroke-miterlimit="8" stroke-opacity="1" fill="none" fill-rule="evenodd"/><path d="M2701.6 245.253 2671.5 213.5" stroke="#FFFFFF" stroke-width="156.979" stroke-linecap="round" stroke-linejoin="miter" stroke-miterlimit="8" stroke-opacity="1" fill="none" fill-rule="evenodd"/><path d="M2825.17 291.126 2703.5 249.5" stroke="#FFFFFF" stroke-width="156.979" stroke-linecap="round" stroke-linejoin="miter" stroke-miterlimit="8" stroke-opacity="1" fill="none" fill-rule="evenodd"/><path d="M0 0 20.241 0.362697" stroke="#FFFFFF" stroke-width="156.979" stroke-linecap="round" stroke-linejoin="miter" stroke-miterlimit="8" stroke-opacity="1" fill="none" fill-rule="evenodd" transform="matrix(-1 0 0 1 2632.74 219.5)"/><path d="M0 0 22.62 21.1981" stroke="#FFFFFF" stroke-width="156.979" stroke-linecap="round" stroke-linejoin="miter" stroke-miterlimit="8" stroke-opacity="1" fill="none" fill-rule="evenodd" transform="matrix(-1 0 0 1 2672.12 214.5)"/><path d="M2927.98 334.648 2833.5 324.5" stroke="#FFFFFF" stroke-width="156.979" stroke-linecap="round" stroke-linejoin="miter" stroke-miterlimit="8" stroke-opacity="1" fill="none" fill-rule="evenodd"/><path d="M2900.19 352.032 2890.5 335.5" stroke="#FFFFFF" stroke-width="156.979" stroke-linecap="round" stroke-linejoin="miter" stroke-miterlimit="8" stroke-opacity="1" fill="none" fill-rule="evenodd"/><path d="M2951.88 381.656 2917.5 376.5" stroke="#FFFFFF" stroke-width="156.979" stroke-linecap="round" stroke-linejoin="miter" stroke-miterlimit="8" stroke-opacity="1" fill="none" fill-rule="evenodd"/><path d="M2988.81 470.208 2923.5 417.5" stroke="#FFFFFF" stroke-width="156.979" stroke-linecap="round" stroke-linejoin="miter" stroke-miterlimit="8" stroke-opacity="1" fill="none" fill-rule="evenodd"/><path d="M3028.77 532.875 2979.5 498.5" stroke="#FFFFFF" stroke-width="156.979" stroke-linecap="round" stroke-linejoin="miter" stroke-miterlimit="8" stroke-opacity="1" fill="none" fill-rule="evenodd"/><path d="M3066.13 646.938 2990.5 533.5" stroke="#FFFFFF" stroke-width="156.979" stroke-linecap="round" stroke-linejoin="miter" stroke-miterlimit="8" stroke-opacity="1" fill="none" fill-rule="evenodd"/><path d="M3071.17 714.812 3034.5 649.5" stroke="#FFFFFF" stroke-width="156.979" stroke-linecap="round" stroke-linejoin="miter" stroke-miterlimit="8" stroke-opacity="1" fill="none" fill-rule="evenodd"/><path d="M3093.08 799.335 3033.5 705.5" stroke="#FFFFFF" stroke-width="156.979" stroke-linecap="round" stroke-linejoin="miter" stroke-miterlimit="8" stroke-opacity="1" fill="none" fill-rule="evenodd"/><path d="M0 0 9.16667 29.7917" stroke="#FFFFFF" stroke-width="156.979" stroke-linecap="round" stroke-linejoin="miter" stroke-miterlimit="8" stroke-opacity="1" fill="none" fill-rule="evenodd" transform="matrix(1 0 0 -1 3100.5 946.292)"/><path d="M3124.31 897.563 3086.5 818.5" stroke="#FFFFFF" stroke-width="156.979" stroke-linecap="round" stroke-linejoin="miter" stroke-miterlimit="8" stroke-opacity="1" fill="none" fill-rule="evenodd"/><path d="M3125.12 1006.79 3104.5 949.5" stroke="#FFFFFF" stroke-width="156.979" stroke-linecap="round" stroke-linejoin="miter" stroke-miterlimit="8" stroke-opacity="1" fill="none" fill-rule="evenodd"/><path d="M3128.52 1049.65 3120.5 1024.5" stroke="#FFFFFF" stroke-width="156.979" stroke-linecap="round" stroke-linejoin="miter" stroke-miterlimit="8" stroke-opacity="1" fill="none" fill-rule="evenodd"/><path d="M3124.69 1066.9 3107.5 1055.5" stroke="#FFFFFF" stroke-width="156.979" stroke-linecap="round" stroke-linejoin="miter" stroke-miterlimit="8" stroke-opacity="1" fill="none" fill-rule="evenodd"/><path d="M0 0 16.0417 19.4792" stroke="#FFFFFF" stroke-width="156.979" stroke-linecap="round" stroke-linejoin="miter" stroke-miterlimit="8" stroke-opacity="1" fill="none" fill-rule="evenodd" transform="matrix(1 0 0 -1 3109.5 1115.98)"/><path d="M3197.02 1187.6 3106.5 1123.5" stroke="#FFFFFF" stroke-width="156.979" stroke-linecap="round" stroke-linejoin="miter" stroke-miterlimit="8" stroke-opacity="1" fill="none" fill-rule="evenodd"/><path d="M3207.29 1259.2 3122.5 1180.5" stroke="#FFFFFF" stroke-width="156.979" stroke-linecap="round" stroke-linejoin="miter" stroke-miterlimit="8" stroke-opacity="1" fill="none" fill-rule="evenodd"/><path d="M3295.92 1342.5 3190.5 1287.5" stroke="#FFFFFF" stroke-width="156.979" stroke-linecap="round" stroke-linejoin="miter" stroke-miterlimit="8" stroke-opacity="1" fill="none" fill-rule="evenodd"/><path d="M3252.15 1360.98 3223.5 1341.5" stroke="#FFFFFF" stroke-width="156.979" stroke-linecap="round" stroke-linejoin="miter" stroke-miterlimit="8" stroke-opacity="1" fill="none" fill-rule="evenodd"/><path d="M3296.17 1411.54 3259.5 1395.5" stroke="#FFFFFF" stroke-width="156.979" stroke-linecap="round" stroke-linejoin="miter" stroke-miterlimit="8" stroke-opacity="1" fill="none" fill-rule="evenodd"/><path d="M3272.5 1498.5 3317.19 1530.29" stroke="#FFFFFF" stroke-width="156.979" stroke-linecap="round" stroke-linejoin="miter" stroke-miterlimit="8" stroke-opacity="1" fill="none" fill-rule="evenodd"/><path d="M0 0 48.125 8.31893" stroke="#FFFFFF" stroke-width="156.979" stroke-linecap="round" stroke-linejoin="miter" stroke-miterlimit="8" stroke-opacity="1" fill="none" fill-rule="evenodd" transform="matrix(1 0 0 -1 3230.5 1609.82)"/><path d="M3277.5 1545.5 3327.92 1566.97" stroke="#FFFFFF" stroke-width="156.979" stroke-linecap="round" stroke-linejoin="miter" stroke-miterlimit="8" stroke-opacity="1" fill="none" fill-rule="evenodd"/><path d="M3167.5 1748.5 3191.56 1760.18" stroke="#FFFFFF" stroke-width="156.979" stroke-linecap="round" stroke-linejoin="miter" stroke-miterlimit="8" stroke-opacity="1" fill="none" fill-rule="evenodd"/><path d="M3188.5 1706.5 3211.42 1711.32" stroke="#FFFFFF" stroke-width="156.979" stroke-linecap="round" stroke-linejoin="miter" stroke-miterlimit="8" stroke-opacity="1" fill="none" fill-rule="evenodd"/><path d="M3234.5 1649.5 3234.5 1667.77" stroke="#FFFFFF" stroke-width="156.979" stroke-linecap="round" stroke-linejoin="miter" stroke-miterlimit="8" stroke-opacity="1" fill="none" fill-rule="evenodd"/><path d="M3211.5 1665.5 3236.71 1665.5" stroke="#FFFFFF" stroke-width="156.979" stroke-linecap="round" stroke-linejoin="miter" stroke-miterlimit="8" stroke-opacity="1" fill="none" fill-rule="evenodd"/><path d="M3278.5 1558.5 3278.5 1576.77" stroke="#FFFFFF" stroke-width="156.979" stroke-linecap="round" stroke-linejoin="miter" stroke-miterlimit="8" stroke-opacity="1" fill="none" fill-rule="evenodd"/><path d="M2793.5 2015.5 2841.63 2043.22" stroke="#FFFFFF" stroke-width="156.979" stroke-linecap="round" stroke-linejoin="miter" stroke-miterlimit="8" stroke-opacity="1" fill="none" fill-rule="evenodd"/><path d="M2800.5 2010.5 2886.44 2029.48" stroke="#FFFFFF" stroke-width="156.979" stroke-linecap="round" stroke-linejoin="miter" stroke-miterlimit="8" stroke-opacity="1" fill="none" fill-rule="evenodd"/><path d="M3124.5 1746.5 3164.6 1746.5" stroke="#FFFFFF" stroke-width="156.979" stroke-linecap="round" stroke-linejoin="miter" stroke-miterlimit="8" stroke-opacity="1" fill="none" fill-rule="evenodd"/><path d="M0 0 41.25 32.0938" stroke="#FFFFFF" stroke-width="156.979" stroke-linecap="round" stroke-linejoin="miter" stroke-miterlimit="8" stroke-opacity="1" fill="none" fill-rule="evenodd" transform="matrix(1 0 0 -1 3075.5 1782.59)"/><path d="M0 0 46.9792 14.0033" stroke="#FFFFFF" stroke-width="156.979" stroke-linecap="round" stroke-linejoin="miter" stroke-miterlimit="8" stroke-opacity="1" fill="none" fill-rule="evenodd" transform="matrix(1 0 0 -1 3057.5 1850.5)"/><path d="M0 0 53.8542 30.9375" stroke="#FFFFFF" stroke-width="156.979" stroke-linecap="round" stroke-linejoin="miter" stroke-miterlimit="8" stroke-opacity="1" fill="none" fill-rule="evenodd" transform="matrix(1 0 0 -1 2997.5 1883.44)"/><path d="M3084.58 1897.67 2997.5 1888.5" stroke="#FFFFFF" stroke-width="156.979" stroke-linecap="round" stroke-linejoin="miter" stroke-miterlimit="8" stroke-opacity="1" fill="none" fill-rule="evenodd"/><path d="M0 0 120.312 8.5416" stroke="#FFFFFF" stroke-width="156.979" stroke-linecap="round" stroke-linejoin="miter" stroke-miterlimit="8" stroke-opacity="1" fill="none" fill-rule="evenodd" transform="matrix(-1 0 0 1 3085.81 1912.5)"/><path d="M0 0 59.5833 6.75591" stroke="#FFFFFF" stroke-width="156.979" stroke-linecap="round" stroke-linejoin="miter" stroke-miterlimit="8" stroke-opacity="1" fill="none" fill-rule="evenodd" transform="matrix(-1 0 0 1 2987.08 1942.5)"/><path d="M2916.62 1988.89 2868.5 1963.5" stroke="#FFFFFF" stroke-width="156.979" stroke-linecap="round" stroke-linejoin="miter" stroke-miterlimit="8" stroke-opacity="1" fill="none" fill-rule="evenodd"/><path d="M2890.27 2018.02 2868.5 1968.5" stroke="#FFFFFF" stroke-width="156.979" stroke-linecap="round" stroke-linejoin="miter" stroke-miterlimit="8" stroke-opacity="1" fill="none" fill-rule="evenodd"/><path d="M3125 1802.33 3097.5 1780.5" stroke="#FFFFFF" stroke-width="156.979" stroke-linecap="round" stroke-linejoin="miter" stroke-miterlimit="8" stroke-opacity="1" fill="none" fill-rule="evenodd"/><path d="M3313.17 1468.54 3276.5 1452.5" stroke="#FFFFFF" stroke-width="156.979" stroke-linecap="round" stroke-linejoin="miter" stroke-miterlimit="8" stroke-opacity="1" fill="none" fill-rule="evenodd"/></g></g></svg>